<svg width="165" height="155" viewBox="0 0 165 155" fill="none" xmlns="http://www.w3.org/2000/svg">
<g id="color_lens_24px">
<path id="icon/image/color_lens_24px" fill-rule="evenodd" clip-rule="evenodd" d="M13.75 77.5C13.75 113.085 44.6187 142.083 82.5 142.083C91.9875 142.083 99.6875 134.85 99.6875 125.937C99.6875 121.998 98.1062 118.187 95.2875 115.152C94.7375 114.506 94.3937 113.796 94.3937 113.021C94.3937 111.212 95.9062 109.792 97.8312 109.792H110C132.756 109.792 151.25 92.4187 151.25 71.0416C151.25 39.0083 120.381 12.9166 82.5 12.9166C44.6187 12.9166 13.75 41.9145 13.75 77.5ZM27.5 77.5C27.5 49.0187 52.1813 25.8333 82.5 25.8333C112.819 25.8333 137.5 46.1125 137.5 71.0416C137.5 85.3145 125.194 96.875 110 96.875H97.8312C88.3438 96.875 80.6438 104.108 80.6438 113.021C80.6438 116.896 82.1562 120.706 84.975 123.677C85.3875 124.129 85.9375 124.904 85.9375 125.937C85.9375 127.746 84.425 129.167 82.5 129.167C52.1813 129.167 27.5 105.981 27.5 77.5ZM44.6875 64.5833C38.9921 64.5833 34.375 68.9205 34.375 74.2708C34.375 79.621 38.9921 83.9583 44.6875 83.9583C50.3829 83.9583 55 79.621 55 74.2708C55 68.9205 50.3829 64.5833 44.6875 64.5833ZM55 48.4375C55 43.0872 59.6171 38.75 65.3125 38.75C71.0079 38.75 75.625 43.0872 75.625 48.4375C75.625 53.7877 71.0079 58.125 65.3125 58.125C59.6171 58.125 55 53.7877 55 48.4375ZM99.6875 38.75C93.9921 38.75 89.375 43.0872 89.375 48.4375C89.375 53.7877 93.9921 58.125 99.6875 58.125C105.383 58.125 110 53.7877 110 48.4375C110 43.0872 105.383 38.75 99.6875 38.75ZM110 74.2708C110 68.9205 114.617 64.5833 120.312 64.5833C126.008 64.5833 130.625 68.9205 130.625 74.2708C130.625 79.621 126.008 83.9583 120.312 83.9583C114.617 83.9583 110 79.621 110 74.2708Z" fill="#146996"/>
</g>
</svg>
