<svg width="50" height="50" viewBox="0 0 50 50" fill="none" xmlns="http://www.w3.org/2000/svg">
<path fill-rule="evenodd" clip-rule="evenodd" d="M21.8494 7.89102C23.9006 5.83984 26.6826 4.6875 29.5834 4.6875H35.2084C36.0713 4.6875 36.7709 5.38706 36.7709 6.25V13.75C36.7709 14.6129 36.0713 15.3125 35.2084 15.3125H29.5834C29.5005 15.3125 29.421 15.3454 29.3624 15.404C29.3038 15.4626 29.2709 15.5421 29.2709 15.625V19.6875H35.2084C35.6895 19.6875 36.1438 19.9092 36.4399 20.2884C36.736 20.6677 36.8409 21.1622 36.7242 21.629L34.8492 29.129C34.6753 29.8245 34.0504 30.3125 33.3334 30.3125H29.2709V43.75C29.2709 44.6129 28.5713 45.3125 27.7084 45.3125H20.2084C19.3454 45.3125 18.6459 44.6129 18.6459 43.75V30.3125H14.5834C13.7204 30.3125 13.0209 29.6129 13.0209 28.75V21.25C13.0209 20.3871 13.7204 19.6875 14.5834 19.6875H18.6459V15.625C18.6459 12.7242 19.7982 9.9422 21.8494 7.89102ZM29.5834 7.8125C27.5114 7.8125 25.5242 8.6356 24.0591 10.1007C22.594 11.5659 21.7709 13.553 21.7709 15.625V21.25C21.7709 22.1129 21.0713 22.8125 20.2084 22.8125H16.1459V27.1875H20.2084C21.0713 27.1875 21.7709 27.8871 21.7709 28.75V42.1875H26.1459V28.75C26.1459 27.8871 26.8454 27.1875 27.7084 27.1875H32.1134L33.2072 22.8125H27.7084C26.8454 22.8125 26.1459 22.1129 26.1459 21.25V15.625C26.1459 14.7133 26.508 13.839 27.1527 13.1943C27.7973 12.5497 28.6717 12.1875 29.5834 12.1875H33.6459V7.8125H29.5834Z" fill="white"/>
</svg>
