<svg width="50" height="50" viewBox="0 0 50 50" fill="none" xmlns="http://www.w3.org/2000/svg">
<path fill-rule="evenodd" clip-rule="evenodd" d="M10.4167 2.604C7.25254 2.604 4.6875 5.16904 4.6875 8.33317C4.6875 11.4973 7.25254 14.0623 10.4167 14.0623C13.5808 14.0623 16.1458 11.4973 16.1458 8.33317C16.1458 5.16904 13.5808 2.604 10.4167 2.604ZM7.8125 8.33317C7.8125 6.89493 8.97843 5.729 10.4167 5.729C11.8549 5.729 13.0208 6.89493 13.0208 8.33317C13.0208 9.77141 11.8549 10.9373 10.4167 10.9373C8.97843 10.9373 7.8125 9.77141 7.8125 8.33317Z" fill="white"/>
<path fill-rule="evenodd" clip-rule="evenodd" d="M4.6875 16.6665C4.6875 15.8036 5.38706 15.104 6.25 15.104H14.5833C15.4463 15.104 16.1458 15.8036 16.1458 16.6665V43.7498C16.1458 44.6128 15.4463 45.3123 14.5833 45.3123H6.25C5.38706 45.3123 4.6875 44.6128 4.6875 43.7498V16.6665ZM7.8125 18.229V42.1873H13.0208V18.229H7.8125Z" fill="white"/>
<path fill-rule="evenodd" clip-rule="evenodd" d="M19.2708 16.6665C19.2708 15.8036 19.9704 15.104 20.8333 15.104H29.1667C30.0296 15.104 30.7292 15.8036 30.7292 16.6665V17.5707L31.636 17.1821C33.195 16.5139 34.8623 16.0949 36.5484 15.9416C42.3296 15.4161 47.3958 19.959 47.3958 25.792V43.7498C47.3958 44.6128 46.6963 45.3123 45.8333 45.3123H37.5C36.6371 45.3123 35.9375 44.6128 35.9375 43.7498V29.1665C35.9375 28.4758 35.6631 27.8135 35.1748 27.3251C34.6864 26.8367 34.024 26.5623 33.3333 26.5623C32.6427 26.5623 31.9803 26.8367 31.4919 27.3251C31.0035 27.8135 30.7292 28.4758 30.7292 29.1665V43.7498C30.7292 44.6128 30.0296 45.3123 29.1667 45.3123H20.8333C19.9704 45.3123 19.2708 44.6128 19.2708 43.7498V16.6665ZM22.3958 18.229V42.1873H27.6042V29.1665C27.6042 27.647 28.2078 26.1898 29.2822 25.1154C30.3566 24.0409 31.8139 23.4373 33.3333 23.4373C34.8528 23.4373 36.31 24.0409 37.3845 25.1154C38.4589 26.1898 39.0625 27.647 39.0625 29.1665V42.1873H44.2708V25.792C44.2708 21.8246 40.8105 18.6921 36.8314 19.0538C35.4688 19.1777 34.1217 19.5167 32.867 20.0544L29.7822 21.3765C29.2994 21.5834 28.745 21.5339 28.3065 21.2448C27.868 20.9556 27.6042 20.4655 27.6042 19.9403V18.229H22.3958Z" fill="white"/>
</svg>
