<svg width="50" height="50" viewBox="0 0 50 50" fill="none" xmlns="http://www.w3.org/2000/svg">
<path fill-rule="evenodd" clip-rule="evenodd" d="M31.2947 6.96552C32.3538 6.7841 33.5399 6.72352 34.6561 6.91236C36.6495 7.24962 38.4909 8.17614 39.9464 9.56522C40.8979 9.58674 41.8329 9.39929 42.6603 9.13208C43.3605 8.90593 43.952 8.63287 44.3665 8.41696C44.5726 8.3096 44.7317 8.21802 44.8353 8.15602C44.8869 8.12507 44.9245 8.10164 44.9468 8.0875L44.9666 8.07487C45.585 7.66293 46.4083 7.74311 46.9352 8.26708C47.4621 8.79117 47.547 9.61392 47.1381 10.2346C46.7054 10.8914 46.1047 12.0624 45.4316 13.3744C45.3258 13.5807 45.2182 13.7905 45.1091 14.0023C44.7231 14.7522 44.3273 15.5101 43.9584 16.1604C43.7267 16.5687 43.479 16.9833 43.2292 17.3415V17.9118C43.245 20.0069 43.0047 22.091 42.5171 24.1186C42.2102 25.3943 41.8055 26.6476 41.305 27.8671C40.0083 31.0269 38.095 33.8965 35.6768 36.3085C33.2586 38.7205 30.384 40.6264 27.221 41.9151C24.0608 43.2025 20.6759 43.8479 17.2637 43.8137C12.3172 43.818 7.47479 42.3929 3.31912 39.7097C2.70703 39.3145 2.44933 38.5487 2.69794 37.8639C2.94656 37.179 3.63551 36.7569 4.35857 36.8464C4.98432 36.9238 5.61435 36.9616 6.24487 36.9595C8.51039 36.9532 10.7328 36.4526 12.7616 35.5096C12.1167 35.2161 11.5011 34.8541 10.9257 34.4275C9.23465 33.1735 7.97651 31.4236 7.32637 29.4212C7.15742 28.9009 7.27292 28.3301 7.63086 27.9164C7.63727 27.909 7.64375 27.9016 7.65028 27.8944C7.26793 27.5534 6.91016 27.1822 6.5808 26.783C5.09888 24.9867 4.28289 22.7337 4.27085 20.4051L4.27081 20.397L4.27083 20.2929C4.27083 19.739 4.56406 19.2265 5.04157 18.9458C5.16261 18.8747 5.29091 18.8211 5.42289 18.7852C4.71803 17.3788 4.35148 15.8258 4.35416 14.2502C4.35333 12.4653 4.81957 10.7112 5.70658 9.16224C5.96264 8.71508 6.4227 8.42292 6.9363 8.3813C7.4499 8.33968 7.951 8.55396 8.27571 8.95406C10.281 11.4249 12.7837 13.4463 15.6212 14.8868C17.0798 15.6274 18.6101 16.2059 20.1847 16.6151C21.0675 16.8446 21.9642 17.0208 22.8699 17.1425C22.8301 15.6357 23.1276 14.1298 23.752 12.7382C24.668 10.6969 26.2357 9.0174 28.2091 7.96304C29.0448 7.51653 30.1542 7.16088 31.2947 6.96552ZM7.79848 22.6895C8.06858 23.4496 8.47039 24.1628 8.99134 24.7943C10.0149 26.035 11.4356 26.8841 13.0132 27.1979C13.7159 27.3377 14.2334 27.9374 14.2689 28.653C14.3044 29.3686 13.8486 30.0166 13.1632 30.2252C12.5955 30.3979 12.0139 30.5183 11.4257 30.5852C11.8144 31.0862 12.2716 31.5351 12.7871 31.9173C13.9562 32.7842 15.3665 33.2651 16.8217 33.2932C17.482 33.3059 18.063 33.7323 18.273 34.3583C18.4831 34.9844 18.2768 35.6749 17.7579 36.0833C15.5721 37.8032 13.0446 39.0025 10.3664 39.6147C12.5861 40.3256 14.9141 40.6916 17.2689 40.6887L17.2871 40.6887C20.2872 40.7198 23.2634 40.153 26.042 39.021C28.8205 37.889 31.3457 36.2148 33.4699 34.096C35.5941 31.9772 37.2749 29.4563 38.414 26.6807C38.8536 25.6094 39.2092 24.5084 39.4787 23.3878C39.9075 21.6049 40.1186 19.7723 40.1042 17.9301L40.1042 17.9179V16.8137C40.1042 16.4348 40.2418 16.0689 40.4915 15.7839C40.6358 15.6193 40.8883 15.2389 41.2404 14.6183C41.5751 14.0285 41.9455 13.3203 42.3307 12.572C42.354 12.5268 42.3773 12.4813 42.4008 12.4356C41.4017 12.6526 40.2692 12.7663 39.0821 12.638C38.7062 12.5974 38.3577 12.4218 38.1013 12.1438C37.0537 11.0076 35.6586 10.2514 34.1348 9.99358C33.4587 9.87919 32.6413 9.90538 31.8223 10.0457C30.9325 10.1981 30.1581 10.4648 29.6817 10.7193C28.3186 11.4476 27.2358 12.6077 26.6031 14.0176C25.9704 15.4276 25.8236 17.0077 26.1857 18.5101C26.3011 18.9891 26.1839 19.4945 25.8693 19.8737C25.5548 20.2529 25.0798 20.4616 24.5877 20.4367C22.8306 20.3478 21.0921 20.0798 19.3986 19.6397C17.6072 19.1741 15.8661 18.5158 14.2065 17.6733C11.7632 16.4329 9.53812 14.8139 7.61138 12.8812C7.52348 13.3304 7.47886 13.7888 7.47916 14.2502L7.47916 14.2542C7.47698 15.4015 7.75854 16.5316 8.29877 17.5437C8.839 18.5559 9.62113 19.4188 10.5755 20.0556C11.1547 20.4421 11.4083 21.1651 11.1974 21.8287C10.9865 22.4923 10.3619 22.9362 9.66583 22.9173C9.03543 22.9001 8.41029 22.8235 7.79848 22.6895Z" fill="white"/>
</svg>
